<?xml version="1.0" encoding="UTF-8" standalone="no"?>
<svg
   xmlns:dc="http://purl.org/dc/elements/1.1/"
   xmlns:cc="http://creativecommons.org/ns#"
   xmlns:rdf="http://www.w3.org/1999/02/22-rdf-syntax-ns#"
   xmlns:svg="http://www.w3.org/2000/svg"
   xmlns="http://www.w3.org/2000/svg"
   xmlns:sodipodi="http://sodipodi.sourceforge.net/DTD/sodipodi-0.dtd"
   xmlns:inkscape="http://www.inkscape.org/namespaces/inkscape"
   version="1.1"
   id="Capa_1"
   x="0px"
   y="0px"
   viewBox="0 0 448 448"
   style="enable-background:new 0 0 448 448;"
   xml:space="preserve"
   sodipodi:docname="forest.svg"
   inkscape:version="1.0.2-2 (e86c870879, 2021-01-15)"><metadata
   id="metadata39"><rdf:RDF><cc:Work
       rdf:about=""><dc:format>image/svg+xml</dc:format><dc:type
         rdf:resource="http://purl.org/dc/dcmitype/StillImage" /></cc:Work></rdf:RDF></metadata><defs
   id="defs37" /><sodipodi:namedview
   pagecolor="#ffffff"
   bordercolor="#666666"
   borderopacity="1"
   objecttolerance="10"
   gridtolerance="10"
   guidetolerance="10"
   inkscape:pageopacity="0"
   inkscape:pageshadow="2"
   inkscape:window-width="2787"
   inkscape:window-height="1586"
   id="namedview35"
   showgrid="false"
   inkscape:zoom="1.9196429"
   inkscape:cx="224"
   inkscape:cy="221.65581"
   inkscape:window-x="-11"
   inkscape:window-y="-11"
   inkscape:window-maximized="1"
   inkscape:current-layer="Capa_1"
   inkscape:document-rotation="0" />
<path
   d="m 448,253.99062 c 0,-69.38201 -46.654,-125.82795 -104,-125.82795 -20.33,0 -40.22,7.28714 -57.089,20.68298 -4.38,-23.20801 -10.203,-45.56666 -17.235,-65.5733 C 250.781,29.519624 226.036,-0.08502831 200,-0.08502831 c -26.065,0 -50.81,29.48245431 -69.673,83.01619131 -6.645,18.858457 -12.212,39.853587 -16.501,61.716177 L 87.718,28.82515 C 86.768,24.614754 83.607,21.692883 80,21.692883 c -3.607,0 -6.769,2.921871 -7.718,7.133477 l -72,319.40938 c -0.656,2.90977 -0.153,6.024 1.36,8.42079 1.514,2.39799 3.865,3.80387 6.358,3.80387 h 64 v 77.43258 c 0,5.34526 3.582,9.67907 8,9.67907 4.418,0 8,-4.33381 8,-9.67907 V 360.4604 h 64 c 2.493,0 4.844,-1.40588 6.357,-3.80508 1.232,-1.95155 1.781,-4.37737 1.594,-6.78261 9.898,5.51102 20.696,9.04388 32.049,10.18117 v 77.8391 c 0,5.34526 3.582,9.67907 8,9.67907 4.418,0 8,-4.33381 8,-9.67907 V 360.0551 c 20.768,-2.0798 39.684,-12.17991 54.62,-27.73055 18.014,27.37484 44.584,44.42694 73.38,47.10805 v 58.46038 c 0,5.34526 3.582,9.67907 8,9.67907 4.418,0 8,-4.33381 8,-9.67907 v -58.44345 c 53.622,-4.9581 96,-59.33392 96,-125.45891 z M 141.526,341.10226 H 88 v -15.34859 l 14.157,-17.12832 c 3.124,-3.78089 3.124,-9.90774 0,-13.68863 -3.125,-3.77847 -8.189,-3.77847 -11.314,0 L 88,298.3752 v -63.74273 c 0,-5.34527 -3.582,-9.67907 -8,-9.67907 -4.418,0 -8,4.3338 -8,9.67907 v 44.38581 L 61.657,266.50444 c -3.125,-3.77847 -8.189,-3.77847 -11.314,0 -3.124,3.78089 -3.124,9.90775 0,13.68863 L 72,306.39553 v 15.34132 c 0,0.003 0,0.009 0,0.0122 v 19.35326 H 18.474 L 80,68.157269 107.105,188.39917 c -2.109,18.80523 -3.23,37.6395 -3.23,55.75992 0,36.79016 14.196,69.63972 36.304,90.96634 z M 208,325.75367 237.657,289.87214 c 3.124,-3.78088 3.124,-9.90774 0,-13.68863 -3.125,-3.77847 -8.189,-3.77847 -11.314,0 L 208,298.3752 v -40.37503 l 21.657,-26.20246 c 3.124,-3.78089 3.124,-9.90774 0,-13.68863 -3.125,-3.77847 -8.189,-3.77847 -11.314,0 L 208,230.6217 v -25.02645 c 0,-5.34527 -3.582,-9.67907 -8,-9.67907 -4.418,0 -8,4.3338 -8,9.67907 v 48.38932 c 0,0.003 0,0.009 0,0.0121 v 25.02041 l -18.343,-22.19291 c -3.125,-3.77846 -8.189,-3.77846 -11.314,0 -3.124,3.78089 -3.124,9.90774 0,13.68863 L 192,306.39553 v 15.34132 c 0,0.003 0,0.009 0,0.0122 v 18.86694 c -40.438,-4.87342 -72.125,-46.27082 -72.125,-96.45681 0,-51.4733 9.409,-108.9089 25.17,-153.635901 15.956,-45.279909 35.986,-71.25007 54.955,-71.25007 18.934,0 38.963,26.088729 54.952,71.575529 15.763,44.843142 25.173,102.156562 25.173,153.311662 0,50.18719 -31.687,91.58459 -72.125,96.45679 z m 144,34.26271 v -14.90336 l 29.657,-35.88152 c 3.124,-3.78089 3.124,-9.90775 0,-13.68863 -3.125,-3.77847 -8.189,-3.77847 -11.314,0 L 352,317.73335 v -63.74273 c 0,-5.34527 -3.582,-9.67908 -8,-9.67908 -4.418,0 -8,4.33381 -8,9.67908 v 44.3858 l -18.343,-22.19291 c -3.125,-3.77847 -8.189,-3.77847 -11.314,0 -3.124,3.78089 -3.124,9.90775 0,13.68863 L 336,325.75367 V 341.095 c 0,0.003 0,0.009 0,0.0121 v 18.91049 C 311.462,357.31471 288.936,342.26012 273.934,318.4 c 13.85,-20.15545 22.191,-46.04092 22.191,-74.24091 0,-24.1396 -2.01,-49.59798 -5.723,-74.5966 15.305,-14.22823 34.216,-22.04166 53.598,-22.04166 48.523,0 88,47.76259 88,106.46979 0,55.44415 -35.212,101.11847 -80,106.02577 z"
   id="path2"
   style="stroke-width:1.09995" />
<g
   id="g4">
</g>
<g
   id="g6">
</g>
<g
   id="g8">
</g>
<g
   id="g10">
</g>
<g
   id="g12">
</g>
<g
   id="g14">
</g>
<g
   id="g16">
</g>
<g
   id="g18">
</g>
<g
   id="g20">
</g>
<g
   id="g22">
</g>
<g
   id="g24">
</g>
<g
   id="g26">
</g>
<g
   id="g28">
</g>
<g
   id="g30">
</g>
<g
   id="g32">
</g>
<path
   style="opacity:0.394203;fill:#27a249;fill-rule:evenodd;stroke:#b4c3b5;stroke-width:0.388614;stroke-linecap:round;fill-opacity:0.45360824"
   d="m 187.53488,339.6427 c -14.97067,-3.03876 -28.52369,-10.78564 -39.90099,-22.80734 -6.64481,-7.02115 -11.07529,-13.47195 -15.81777,-23.03071 -8.60826,-17.35047 -11.45687,-30.61596 -11.46602,-53.39535 -0.0167,-41.57165 7.07111,-90.41649 19.02307,-131.09509 14.29684,-48.659414 33.44369,-80.694293 52.77412,-88.297185 4.4349,-1.744299 11.68005,-1.660679 16.06098,0.185367 12.37927,5.216415 24.15596,19.476571 35.30122,42.745547 15.93829,33.275815 27.87822,79.332231 33.32235,128.535781 2.14725,19.40662 2.60851,27.54996 2.6261,46.36279 0.018,19.29795 -0.23669,22.02629 -3.11761,33.39142 -7.4612,29.43426 -26.50259,53.31505 -50.39784,63.20651 -4.15105,1.71834 -11.63539,3.91501 -15.87737,4.66006 l -1.69303,0.29736 v -7.29058 -7.29058 l 15.37875,-18.61268 c 10.08007,-12.19976 15.55333,-19.24087 15.88546,-20.43593 1.35308,-4.86855 -0.18299,-10.08598 -3.6549,-12.41429 -1.49268,-1.00101 -2.32122,-1.18273 -4.56967,-1.00225 -3.42761,0.27513 -3.29749,0.15255 -14.20865,13.38377 l -8.57052,10.39289 -0.13652,-19.52882 -0.13652,-19.52881 11.42285,-13.81504 c 9.85576,-11.91978 11.50806,-14.1703 12.04406,-16.40457 1.45971,-6.08475 -1.66613,-11.93882 -6.82157,-12.77543 -3.34922,-0.5435 -5.18577,0.75422 -10.99919,7.77214 l -5.37311,6.48639 -0.26047,-13.60857 c -0.28573,-14.92883 -0.39642,-15.48224 -3.64313,-18.21416 -2.9186,-2.45584 -6.45552,-2.46373 -9.35868,-0.0209 -3.5883,3.01935 -3.37982,0.60407 -3.66795,42.49498 l -0.26047,37.8685 -8.59535,-10.43864 C 172.01427,254.26405 171.67187,253.95349 168,253.95349 c -2.40163,0 -3.09822,0.2365 -4.61239,1.56596 -0.98095,0.86128 -2.1612,2.36182 -2.62278,3.33454 -1.13702,2.3961 -1.09262,7.40866 0.086,9.70563 0.50887,0.99174 7.65864,9.94252 15.88837,19.89062 l 14.96316,18.08745 v 16.94511 c 0,9.31981 -0.17582,16.92308 -0.3907,16.89615 -0.21489,-0.0269 -1.91442,-0.35823 -3.77675,-0.73625 z"
   id="path845" /><path
   style="opacity:1;fill:#0d5522;fill-opacity:0.45360824;fill-rule:evenodd;stroke:#b4c3b5;stroke-width:0.388614;stroke-linecap:round"
   d="m 18.959644,340.03721 c 0.238838,-0.78786 59.634078,-264.098085 60.651694,-268.880314 0.30042,-1.411821 3.118346,10.386985 13.822586,57.875984 l 13.445236,59.64932 -0.57238,4.89611 c -2.10287,17.98766 -3.23012,50.50681 -2.1651,62.4589 2.64804,29.71745 14.27894,56.82103 32.63766,76.05581 2.19739,2.30226 3.34669,3.96962 3.59072,5.2093 0.19739,1.00279 0.47439,2.23349 0.61556,2.73489 0.24205,0.85966 -1.25961,0.91162 -26.34586,0.91162 H 88.037212 l 0.02271,-7.42325 0.02271,-7.42326 7.753036,-9.35193 c 8.441882,-10.18282 9.263732,-11.74109 8.700512,-16.49659 -0.38594,-3.25865 -1.67553,-5.54793 -4.02485,-7.14494 -1.483818,-1.00867 -2.283175,-1.18106 -4.609879,-0.99415 -2.586028,0.20774 -3.019978,0.44122 -5.339535,2.87279 l -2.524709,2.64667 -0.0086,-33.17058 -0.0086,-33.17057 -1.171458,-2.06831 c -3.278651,-5.78877 -10.307146,-5.93012 -13.629748,-0.2741 -1.025644,1.74593 -1.080831,2.80306 -1.330493,25.48465 l -0.260465,23.66317 -5.385369,-6.5651 c -3.47949,-4.24171 -6.040069,-6.87577 -7.235327,-7.44296 -2.273378,-1.07879 -5.215512,-0.77784 -7.366014,0.75345 -3.460087,2.4638 -4.778059,8.93999 -2.713388,13.33292 0.538641,1.14605 5.92512,8.05294 11.969955,15.34864 l 10.990608,13.26493 v 17.07926 17.07926 H 45.28583 c -25.093751,0 -26.586872,-0.0517 -26.326186,-0.91162 z"
   id="path847" /><path
   style="opacity:1;fill:#6ee992;fill-opacity:0.45360801;fill-rule:evenodd;stroke:#b4c3b5;stroke-width:0.388614;stroke-linecap:round"
   d="m 329.40813,358.62647 c -10.00385,-2.1018 -20.65214,-6.77024 -29.35232,-12.86871 -5.98358,-4.19425 -16.87887,-14.88738 -21.35398,-20.95776 -4.73822,-6.42729 -4.65705,-5.98917 -1.89948,-10.25195 3.22541,-4.98597 8.67321,-16.0114 10.98576,-22.23329 5.69678,-15.32719 8.61902,-32.41878 8.60737,-50.34267 -0.0122,-18.73982 -2.22217,-48.47799 -4.97057,-66.88533 -0.91799,-6.14819 -1.36037,-5.37895 6.48607,-11.27836 18.93927,-14.23962 41.90172,-19.20749 63.67101,-13.77507 36.07598,9.00257 63.55584,44.32625 69.29435,89.07365 0.92978,7.25025 0.78974,24.64525 -0.25501,31.67526 -3.17057,21.33434 -10.61559,39.83144 -22.10268,54.91392 -13.23656,17.37954 -31.00559,29.06931 -50.10234,32.96098 -2.82085,0.57485 -5.38501,1.04518 -5.69814,1.04518 -0.38491,0 -0.56474,-2.32025 -0.55514,-7.16279 l 0.0142,-7.16279 9.92547,-11.98139 c 21.52395,-25.98235 21.15449,-25.50103 21.76713,-28.35767 1.76218,-8.21675 -4.89908,-15.08062 -11.28061,-11.62373 -0.95401,0.5168 -5.74492,5.83348 -11.06164,12.27559 l -9.37872,11.36396 v -32.94833 c 0,-32.33556 -0.0202,-32.99006 -1.08657,-35.19288 -1.53556,-3.17206 -3.72908,-4.59601 -7.07988,-4.59601 -3.18739,0 -5.05141,1.15552 -6.80172,4.21642 -1.1567,2.02282 -1.16358,2.17322 -1.17209,25.66926 L 336,297.83648 326.5673,286.44382 c -5.18798,-6.26596 -10.05217,-11.80134 -10.8093,-12.30085 -3.3842,-2.23268 -8.80625,-0.4212 -10.80913,3.61127 -1.25663,2.52999 -1.30825,8.07953 -0.096,10.32018 0.46503,0.85953 7.65226,9.76744 15.97162,19.79535 l 15.12611,18.23255 0.0247,16.8 c 0.023,15.67581 -0.0363,16.79753 -0.88693,16.76302 -0.50139,-0.0203 -3.0575,-0.48784 -5.68024,-1.03887 z"
   id="path849" /></svg>
