<?xml version="1.0" encoding="UTF-8" standalone="no"?>
<svg
   xmlns:dc="http://purl.org/dc/elements/1.1/"
   xmlns:cc="http://creativecommons.org/ns#"
   xmlns:rdf="http://www.w3.org/1999/02/22-rdf-syntax-ns#"
   xmlns:svg="http://www.w3.org/2000/svg"
   xmlns="http://www.w3.org/2000/svg"
   xmlns:sodipodi="http://sodipodi.sourceforge.net/DTD/sodipodi-0.dtd"
   xmlns:inkscape="http://www.inkscape.org/namespaces/inkscape"
   version="1.1"
   id="Capa_1"
   x="0px"
   y="0px"
   viewBox="0 0 447.19 447.19"
   style="enable-background:new 0 0 447.19 447.19;"
   xml:space="preserve"
   sodipodi:docname="leaf.svg"
   inkscape:version="1.0.2-2 (e86c870879, 2021-01-15)"><metadata
   id="metadata43"><rdf:RDF><cc:Work
       rdf:about=""><dc:format>image/svg+xml</dc:format><dc:type
         rdf:resource="http://purl.org/dc/dcmitype/StillImage" /></cc:Work></rdf:RDF></metadata><defs
   id="defs41" /><sodipodi:namedview
   pagecolor="#ffffff"
   bordercolor="#666666"
   borderopacity="1"
   objecttolerance="10"
   gridtolerance="10"
   guidetolerance="10"
   inkscape:pageopacity="0"
   inkscape:pageshadow="2"
   inkscape:window-width="2787"
   inkscape:window-height="1586"
   id="namedview39"
   showgrid="false"
   inkscape:zoom="1.9231199"
   inkscape:cx="223.595"
   inkscape:cy="221.25505"
   inkscape:window-x="-11"
   inkscape:window-y="-11"
   inkscape:window-maximized="1"
   inkscape:current-layer="Capa_1" />
<g
   id="g6">
	<path
   d="M445.896,204.902c-0.45-0.569-11.229-14.106-28.923-28.159c-23.681-18.808-48.541-29.448-71.892-30.771   c-11.407-0.646-21.188-8.425-24.337-19.357C307.824,81.781,286.496,31.889,226.278,1.78c-1.689-0.845-3.678-0.845-5.366,0   c-60.219,30.109-81.546,80.001-94.466,124.835c-3.151,10.932-12.931,18.71-24.338,19.357c-23.351,1.323-48.21,11.963-71.892,30.771   c-17.694,14.053-28.473,27.589-28.923,28.159c-1.602,2.026-1.728,4.85-0.312,7.01c21.011,32.071,42.67,56.666,64.376,73.104   c19.459,14.736,30.758,38.608,30.224,63.857l-0.009,0.405c-0.337,15.848-0.018,31.982,7.727,39.893   c2.871,2.933,6.562,4.483,10.675,4.483c0,0,0.001,0,0.001,0c0.801,0,1.629-0.059,2.462-0.176   c32.712-4.591,76.668-17.661,100.301-53.854c0.256-0.393,0.549-0.746,0.857-1.082v101.502c0,3.313,2.686,6,6,6s6-2.687,6-6V338.402   c0.362,0.373,0.702,0.772,0.998,1.219c23.658,35.837,67.506,49.064,100.123,53.851c0.865,0.127,1.727,0.191,2.56,0.191   c4.09,0,7.762-1.543,10.62-4.463c7.741-7.907,8.06-24.076,7.723-39.959l-0.008-0.37c-0.535-25.249,10.764-49.121,30.223-63.857   c21.704-16.437,43.363-41.032,64.376-73.104C447.624,209.752,447.499,206.928,445.896,204.902z M374.589,275.449   c-22.517,17.052-35.592,44.595-34.977,73.677l0.008,0.371c0.168,7.884,0.56,26.346-4.3,31.31c-0.778,0.796-1.568,0.983-2.862,0.793   c-30.193-4.431-70.638-16.457-91.852-48.589c-3.759-5.695-10.098-9.095-16.955-9.095c-6.88,0-13.221,3.42-16.961,9.148   c-21.169,32.42-61.671,44.286-91.921,48.531c-0.281,0.04-0.548,0.06-0.793,0.06c0,0-0.001,0-0.001,0   c-0.894,0-1.483-0.246-2.101-0.877c-4.863-4.968-4.472-23.381-4.304-31.244l0.008-0.406c0.616-29.083-12.46-56.626-34.977-73.677   c-19.768-14.97-39.64-37.289-59.107-66.375c10.066-11.388,46.178-48.678,89.293-51.121c16.488-0.934,30.63-12.192,35.189-28.014   c12.606-43.745,31.75-88.01,85.619-116.056c53.868,28.046,73.012,72.311,85.619,116.056c4.559,15.822,18.7,27.081,35.189,28.015   c43.118,2.443,79.231,39.738,89.293,51.121C414.228,238.16,394.355,260.479,374.589,275.449z"
   id="path2" />
	<path
   d="M398.391,211.172c-35.817,8.199-64.97,17.984-88.267,27.676l28.296-59.123c0.953-1.993,0.111-4.381-1.882-5.334   c-1.991-0.953-4.381-0.111-5.335,1.881l-20.265,42.342l-16.528-20.556c-1.383-1.721-3.9-1.997-5.624-0.611   c-1.722,1.384-1.995,3.902-0.61,5.624l18.933,23.546l-8.169,17.069c-16.607,7.476-29.752,14.728-39.779,20.965   c-15.389,9.572-25.536,17.943-31.564,23.554V184.409c0.11-0.082,0.225-0.155,0.328-0.25l27.869-25.779l45.88,10.621   c0.304,0.07,0.607,0.104,0.906,0.104c1.819,0,3.465-1.25,3.893-3.099c0.499-2.152-0.842-4.301-2.994-4.799l-40.584-9.395   l29.503-27.29c1.622-1.5,1.721-4.031,0.221-5.653c-1.5-1.621-4.031-1.72-5.652-0.22l-59.369,54.916V39.383c0-2.209-1.79-4-4-4   c-2.209,0-4,1.791-4,4v134.182l-59.368-54.916c-1.622-1.5-4.152-1.401-5.653,0.22c-1.5,1.622-1.401,4.153,0.22,5.653l29.503,27.29   l-40.583,9.395c-2.152,0.498-3.493,2.647-2.995,4.799c0.428,1.849,2.074,3.099,3.894,3.099c0.298,0,0.602-0.034,0.906-0.104   l45.879-10.621l27.869,25.779c0.103,0.095,0.218,0.167,0.328,0.25v103.796c-6.028-5.611-16.175-13.982-31.563-23.554   c-10.027-6.237-23.173-13.489-39.78-20.965l-8.169-17.069l18.933-23.546c1.384-1.721,1.111-4.239-0.611-5.624   c-1.721-1.385-4.239-1.111-5.624,0.611l-16.529,20.556l-20.265-42.342c-0.953-1.992-3.342-2.834-5.335-1.881   c-1.993,0.954-2.834,3.342-1.881,5.334l28.296,59.123c-23.297-9.693-52.45-19.477-88.268-27.676   c-2.152-0.493-4.299,0.853-4.792,3.006c-0.493,2.153,0.853,4.299,3.006,4.792c43.299,9.912,76.643,22.138,101.505,33.629   l-55.328,21.605c-2.058,0.804-3.075,3.123-2.271,5.181c0.617,1.58,2.127,2.546,3.727,2.546c0.484,0,0.976-0.088,1.454-0.275   l62.289-24.323c9.841,4.904,18.107,9.587,24.903,13.794c8.518,5.273,15.381,10.177,20.788,14.416   c-17.955,8.621-33.402,20.174-45.826,31.449l-23.499-8.949c-2.066-0.784-4.375,0.25-5.162,2.314   c-0.786,2.065,0.25,4.375,2.314,5.162l19.879,7.571c-17.456,17.082-27.497,32.103-28.241,33.231   c-1.216,1.844-0.708,4.325,1.136,5.542c0.679,0.447,1.443,0.662,2.199,0.662c1.299,0,2.574-0.632,3.343-1.797   c0.316-0.48,31.749-47.506,80.69-69.544c4.561,3.98,7.372,6.92,8.68,8.368v15.44c0,2.209,1.791,4,4,4c2.209,0,4-1.791,4-4v-15.439   c1.307-1.447,4.114-4.385,8.681-8.369c48.87,22.009,80.374,69.066,80.692,69.545c0.77,1.165,2.043,1.795,3.342,1.795   c0.756,0,1.521-0.214,2.2-0.662c1.843-1.217,2.351-3.697,1.135-5.541c-0.745-1.128-10.785-16.148-28.242-33.231l19.879-7.571   c2.064-0.787,3.101-3.097,2.314-5.162c-0.787-2.063-3.095-3.102-5.162-2.314l-23.5,8.949   c-12.424-11.275-27.871-22.828-45.826-31.449c5.407-4.239,12.27-9.144,20.789-14.416c6.796-4.206,15.062-8.89,24.903-13.794   l62.289,24.323c0.479,0.187,0.97,0.275,1.454,0.275c1.6,0,3.11-0.966,3.727-2.546c0.804-2.058-0.213-4.377-2.271-5.181   l-55.327-21.605c24.862-11.491,58.207-23.717,101.505-33.629c2.153-0.493,3.5-2.638,3.007-4.792   C402.688,212.025,400.543,210.679,398.391,211.172z"
   id="path4" />
</g>
<g
   id="g8">
</g>
<g
   id="g10">
</g>
<g
   id="g12">
</g>
<g
   id="g14">
</g>
<g
   id="g16">
</g>
<g
   id="g18">
</g>
<g
   id="g20">
</g>
<g
   id="g22">
</g>
<g
   id="g24">
</g>
<g
   id="g26">
</g>
<g
   id="g28">
</g>
<g
   id="g30">
</g>
<g
   id="g32">
</g>
<g
   id="g34">
</g>
<g
   id="g36">
</g>
<path
   style="fill:#95552c;fill-opacity:0.45360801;fill-rule:evenodd;stroke:#b4c3b5;stroke-width:0.387911;stroke-linecap:round"
   d="m 112.51719,380.90608 c -1.0263,-0.62076 -2.90281,-4.8677 -3.62739,-8.20955 -0.29393,-1.35565 -0.73459,-9.95264 -0.97925,-19.10444 -0.44735,-16.73393 -0.71653,-19.58445 -2.63993,-27.95601 C 102.46632,313.43045 96.001861,299.95345 88.500253,290.6735 84.29959,285.47702 77.838152,279.28163 70.458425,273.37452 61.621101,266.30067 45.423186,250.30224 37.724754,241.04396 31.638965,233.72508 21.475532,220.26058 16.897386,213.4519 l -3.064469,-4.55752 8.683193,-8.52562 c 26.144705,-25.67027 51.8968,-39.43597 78.62163,-42.02695 7.08427,-0.68683 9.21701,-1.12907 13.84389,-2.87062 8.48747,-3.19467 15.91381,-9.79814 20.16911,-17.93426 0.97226,-1.85896 3.19971,-8.01464 4.94989,-13.67929 11.34462,-36.71804 23.87755,-59.751096 43.45076,-79.853885 10.63118,-10.918824 21.32346,-19.200486 34.23269,-26.514804 3.09586,-1.754099 5.74758,-3.189271 5.89271,-3.189271 0.69034,0 11.98514,6.79725 17.07783,10.277493 8.31591,5.682933 15.21314,11.535995 22.88987,19.424603 19.65705,20.199596 31.91082,42.711407 43.40887,79.747914 3.26571,10.51919 4.62922,13.81251 7.37998,17.82505 3.94175,5.74983 11.2228,11.4302 17.84712,13.92359 4.50418,1.69537 6.69394,2.15256 13.51181,2.82106 18.25628,1.79006 34.69429,8.12662 52.77882,20.3453 9.17626,6.19987 16.59257,12.36641 26.1028,21.70407 l 8.68319,8.52562 -3.06446,4.55752 c -4.59027,6.8267 -14.75198,20.28631 -20.83141,27.59206 -7.79729,9.37012 -23.89918,25.26205 -32.98963,32.55946 -9.67556,7.76711 -16.67668,15.01001 -21.54203,22.28601 -5.80495,8.6811 -10.63729,19.5253 -12.80715,28.7403 -2.08216,8.84262 -2.40183,12.06812 -2.84455,28.70237 -0.46107,17.32384 -0.53246,18.16051 -1.93009,22.6195 -1.00628,3.21045 -2.01171,4.8052 -3.28407,5.20903 -2.28907,0.72652 -21.97333,-3.49661 -33.13044,-7.10793 -18.30245,-5.92412 -31.55331,-12.89565 -43.65014,-22.96518 -5.63833,-4.69341 -9.43709,-8.81303 -14.95204,-16.21501 -6.36986,-8.5494 -10.3115,-10.87542 -18.47607,-10.90304 -8.50972,-0.0288 -12.26228,2.18133 -19.03558,11.21125 -10.35668,13.80713 -22.41253,23.56693 -38.77936,31.39381 -11.55806,5.52723 -25.26333,9.92797 -39.49342,12.68128 -10.0609,1.94663 -12.97313,2.28919 -14.02945,1.65027 z m 16.68763,-18.7276 c 0.52763,-0.28237 1.50093,-1.39385 2.1629,-2.46994 3.3458,-5.4389 14.57931,-18.47915 24.34318,-28.2584 17.12332,-17.15031 30.17098,-27.01947 48.17702,-36.44077 l 6.9141,-3.61767 4.15275,3.96752 4.15276,3.96752 0.16378,8.85014 c 0.15878,8.57947 0.20133,8.88051 1.39136,9.84307 0.67518,0.5461 1.99472,0.99292 2.93233,0.99292 0.93761,0 2.25716,-0.44682 2.93233,-0.99292 1.19004,-0.96256 1.23259,-1.2636 1.39136,-9.84307 l 0.16378,-8.85014 4.12564,-3.94161 4.12564,-3.94161 5.33036,2.67395 c 25.29432,12.68876 52.26191,36.11358 71.76205,62.33456 4.38562,5.89715 4.76932,6.23986 6.98606,6.23986 3.16084,0 5.08041,-3.26207 3.60196,-6.12107 -2.35669,-4.55734 -14.36976,-19.26933 -23.12122,-28.31575 -4.70477,-4.86333 -4.84511,-5.07562 -3.6561,-5.53037 0.68005,-0.2601 5.09738,-1.9338 9.81628,-3.71934 4.71889,-1.78553 9.10629,-3.72505 9.74978,-4.31004 1.71563,-1.55967 1.61439,-4.61718 -0.20013,-6.04448 -0.75355,-0.59274 -1.90407,-1.07772 -2.55672,-1.07772 -0.65265,0 -6.41246,1.9886 -12.79959,4.4191 -6.38712,2.43051 -11.79296,4.41946 -12.01297,4.41991 -0.22001,4.4e-4 -2.32597,-1.66649 -4.6799,-3.70429 -10.39041,-8.99496 -24.08692,-18.42396 -35.56048,-24.48065 l -5.28119,-2.78785 4.24121,-3.146 c 8.90826,-6.60787 22.40118,-14.969 34.21001,-21.19885 l 6.56933,-3.46571 31.30981,12.23246 c 17.22039,6.72785 31.9893,12.23245 32.81979,12.23245 2.94148,0 4.81699,-3.36422 3.4015,-6.10148 -0.72623,-1.40438 -3.13778,-2.44954 -28.61833,-12.40308 -15.3039,-5.97821 -27.66028,-11.02222 -27.45862,-11.20891 0.62425,-0.57794 12.37698,-5.57753 22.46615,-9.55705 18.90832,-7.45812 41.75177,-14.67814 63.95857,-20.21508 16.80212,-4.18935 15.57035,-3.75586 16.41477,-5.77682 0.40398,-0.96687 0.58497,-2.18052 0.4022,-2.69699 -0.6076,-1.71696 -2.41861,-3.27899 -3.80163,-3.27899 -1.72707,0 -21.34627,4.86738 -33.34065,8.27158 -15.85085,4.49873 -39.34391,12.4827 -51.36173,17.45497 -1.81971,0.75289 -3.41639,1.26107 -3.54818,1.12928 -0.13178,-0.13179 5.94216,-13.1896 13.49767,-29.01737 7.5555,-15.82778 13.8807,-29.18067 14.056,-29.6731 0.44208,-1.24186 -0.59097,-3.96173 -1.73786,-4.57553 -1.48115,-0.79269 -3.91746,-0.60057 -5.08481,0.40097 -0.58335,0.50049 -5.5547,10.32827 -11.04745,21.83951 -5.49274,11.51125 -10.13076,20.91981 -10.30672,20.90791 -0.17595,-0.0119 -3.59584,-4.13253 -7.59975,-9.15697 -9.49982,-11.92117 -9.70939,-12.14093 -11.57824,-12.14093 -2.45397,0 -4.2814,1.77574 -4.2814,4.16029 0,1.82291 0.87725,3.09724 9.66659,14.04199 l 9.66659,12.03715 -1.09764,2.55153 c -0.6037,1.40334 -2.37087,5.14582 -3.92705,8.31662 l -2.8294,5.76508 -13.66937,6.86219 c -22.63366,11.36238 -39.95796,22.47305 -53.83847,34.52846 l -3.24993,2.8226 v -51.42413 -51.42413 l 12.59463,-11.66843 c 6.92704,-6.41764 13.24658,-12.21714 14.04343,-12.88778 l 1.4488,-1.21935 22.74575,5.25053 c 12.51016,2.88778 23.28762,5.24995 23.94991,5.24925 1.84094,-0.002 3.05064,-0.85947 3.65398,-2.59023 0.64419,-1.84793 -0.0649,-4.45816 -1.40291,-5.16407 -0.47041,-0.24818 -9.74709,-2.49389 -20.61485,-4.99047 -10.86776,-2.49658 -19.92797,-4.69165 -20.1338,-4.87792 -0.20583,-0.18627 6.28809,-6.49645 14.43094,-14.02263 9.01485,-8.33213 14.92942,-14.17891 15.12282,-14.94951 0.73448,-2.9264 -2.25521,-5.94591 -5.16426,-5.21578 -0.67341,0.16901 -14.54214,12.62813 -30.81941,27.68693 l -29.59503,27.37964 -0.26,-67.27715 c -0.14299,-37.002422 -0.44836,-67.654935 -0.67859,-68.116686 -0.44612,-0.894752 -2.53055,-2.020389 -3.74131,-2.020389 -1.21076,0 -3.29519,1.125637 -3.74131,2.020389 -0.23022,0.461751 -0.53559,31.103157 -0.67859,68.092006 l -0.25999,67.25247 -29.57737,-27.35053 c -16.26755,-15.04278 -30.13629,-27.4908 -30.81941,-27.66225 -2.92064,-0.73304 -5.91884,2.27526 -5.18433,5.20178 0.19047,0.75889 6.18002,6.67163 15.13319,14.93914 8.14988,7.52574 14.64488,13.83882 14.43334,14.02908 -0.21153,0.19026 -8.69142,2.25961 -18.8442,4.59856 -24.45495,5.63381 -22.30554,4.9804 -23.16724,7.04273 -1.2783,3.05939 0.43536,5.99166 3.5035,5.99489 0.66229,5.2e-4 11.43974,-2.36147 23.9499,-5.24925 l 22.74576,-5.25053 1.44587,1.21935 c 0.79524,0.67064 7.11478,6.46304 14.04343,12.872 l 12.59755,11.65266 v 51.50147 51.50146 l -1.94996,-1.8572 c -2.82327,-2.68897 -11.75719,-9.66973 -17.37816,-13.57889 -12.17752,-8.46899 -27.0032,-17.0082 -42.23846,-24.3283 l -9.10088,-4.37271 -3.92539,-8.11982 c -2.15897,-4.4659 -3.92539,-8.28128 -3.92539,-8.47861 0,-0.19732 4.3289,-5.73933 9.61978,-12.31556 8.78213,-10.91563 9.61979,-12.13293 9.61979,-13.97964 0,-2.40335 -1.81875,-4.1783 -4.28141,-4.1783 -1.87379,0 -2.10862,0.24632 -11.57824,12.14461 -4.00391,5.03078 -7.42119,9.15319 -7.59395,9.1609 -0.17276,0.008 -4.80667,-9.40427 -10.29757,-20.91552 -5.49091,-11.51124 -10.46487,-21.33902 -11.05324,-21.83951 -1.17758,-1.00168 -3.61329,-1.1934 -5.09397,-0.40097 -1.34796,0.72141 -2.1786,3.37768 -1.56276,4.99747 0.27345,0.71922 6.60098,14.06837 14.06118,29.66479 7.46021,15.59642 13.45461,28.46653 13.3209,28.60024 -0.13372,0.13371 -1.73198,-0.37289 -3.55169,-1.12578 -12.01782,-4.97227 -35.510876,-12.95624 -51.361729,-17.45497 -11.994379,-3.4042 -31.613582,-8.27158 -33.340646,-8.27158 -1.38302,0 -3.194027,1.56203 -3.80163,3.27899 -0.182773,0.51647 -0.0018,1.73012 0.402203,2.69699 0.839109,2.00827 0.0538,1.72148 14.334814,5.23496 28.573195,7.0297 57.487168,16.65482 81.898168,27.26293 3.43192,1.49139 6.40485,2.86436 6.60651,3.05106 0.20165,0.18669 -12.15473,5.2307 -27.45863,11.20891 -25.480543,9.95354 -27.892099,10.9987 -28.61833,12.40308 -1.415492,2.73726 0.460023,6.10148 3.401499,6.10148 0.830494,0 15.600031,-5.50485 32.821201,-12.233 l 31.31122,-12.23301 6.04793,3.19832 c 12.98973,6.86936 22.65197,12.79705 33.21105,20.37469 l 5.8436,4.1936 -5.32361,2.81037 c -11.54484,6.09461 -25.2533,15.53723 -35.58139,24.50909 -2.3421,2.03455 -4.44806,3.69882 -4.6799,3.69838 -0.23184,-4.5e-4 -5.64736,-1.9894 -12.03449,-4.41991 -6.38713,-2.4305 -12.14694,-4.4191 -12.79959,-4.4191 -0.65264,0 -1.80317,0.48498 -2.55672,1.07772 -1.81452,1.4273 -1.91575,4.48481 -0.20012,6.04448 0.64348,0.58499 5.03088,2.52451 9.74978,4.31004 4.71889,1.78554 9.13139,3.4574 9.80554,3.71525 1.17454,0.44924 1.01878,0.68445 -3.72934,5.63132 -9.06107,9.44034 -20.69719,23.6937 -23.03725,28.21889 -1.96907,3.80776 2.18049,7.66732 6.029,5.60766 z"
   id="path868" /></svg>
