<?xml version="1.0" encoding="UTF-8" standalone="no"?>
<svg
   xmlns:dc="http://purl.org/dc/elements/1.1/"
   xmlns:cc="http://creativecommons.org/ns#"
   xmlns:rdf="http://www.w3.org/1999/02/22-rdf-syntax-ns#"
   xmlns:svg="http://www.w3.org/2000/svg"
   xmlns="http://www.w3.org/2000/svg"
   xmlns:sodipodi="http://sodipodi.sourceforge.net/DTD/sodipodi-0.dtd"
   xmlns:inkscape="http://www.inkscape.org/namespaces/inkscape"
   version="1.1"
   id="Capa_1"
   x="0px"
   y="0px"
   viewBox="0 0 470 470"
   style="enable-background:new 0 0 470 470;"
   xml:space="preserve"
   sodipodi:docname="microbes.svg"
   inkscape:version="1.0.2-2 (e86c870879, 2021-01-15)"><metadata
   id="metadata49"><rdf:RDF><cc:Work
       rdf:about=""><dc:format>image/svg+xml</dc:format><dc:type
         rdf:resource="http://purl.org/dc/dcmitype/StillImage" /></cc:Work></rdf:RDF></metadata><defs
   id="defs47" /><sodipodi:namedview
   pagecolor="#ffffff"
   bordercolor="#666666"
   borderopacity="1"
   objecttolerance="10"
   gridtolerance="10"
   guidetolerance="10"
   inkscape:pageopacity="0"
   inkscape:pageshadow="2"
   inkscape:window-width="2787"
   inkscape:window-height="1586"
   id="namedview45"
   showgrid="false"
   inkscape:zoom="0.45744681"
   inkscape:cx="-340.538"
   inkscape:cy="-313.73089"
   inkscape:window-x="-11"
   inkscape:window-y="-11"
   inkscape:window-maximized="1"
   inkscape:current-layer="Capa_1"
   inkscape:document-rotation="0" />

<g
   id="g14">
</g>
<g
   id="g16">
</g>
<g
   id="g18">
</g>
<g
   id="g20">
</g>
<g
   id="g22">
</g>
<g
   id="g24">
</g>
<g
   id="g26">
</g>
<g
   id="g28">
</g>
<g
   id="g30">
</g>
<g
   id="g32">
</g>
<g
   id="g34">
</g>
<g
   id="g36">
</g>
<g
   id="g38">
</g>
<g
   id="g40">
</g>
<g
   id="g42">
</g>
<path
   style="fill:#814cb3;fill-opacity:1;stroke-width:1.10352"
   d="m 222.40492,441.07806 c -13.55745,-3.69206 -35.53212,-20.1293 -40.89702,-30.59127 -7.74874,-15.11076 -2.98245,-25.9921 22.86881,-52.20829 15.1841,-15.39847 17.12698,-18.09403 19.22123,-26.66732 2.85464,-11.68659 11.35886,-21.12302 21.10768,-23.42147 14.77,-3.48231 31.5243,10.11952 34.48471,27.99617 1.24745,7.5325 -0.0693,15.57848 -5.12771,31.335 -3.20678,9.98859 -4.16128,15.14273 -5.01935,27.10304 -1.26171,17.58754 -3.25102,26.03919 -7.751,32.93124 -7.72571,11.83219 -24.13805,17.53953 -38.88735,13.5229 z m 17.96794,-9.43409 c 2.3715,-0.69829 6.28024,-2.92553 8.68613,-4.94939 6.48778,-5.4578 8.74148,-12.48884 10.12076,-31.57504 0.79536,-11.0064 1.98145,-18.53965 3.90956,-24.83104 7.88458,-25.72729 8.48401,-31.23118 4.2921,-39.40842 -2.30238,-4.49123 -7.91673,-10.37983 -11.80508,-12.38189 -9.18514,-4.72916 -19.04065,2.49069 -22.75987,16.67306 -2.46083,9.38379 -5.52001,13.68633 -20.3194,28.57803 -15.5658,15.6628 -24.59964,28.05512 -24.59964,33.74485 0,7.61872 7.5554,17.25702 20.03663,25.56033 14.29204,9.50803 22.20418,11.6031 32.43881,8.58951 z m -10.17593,-11.76854 c -8.10858,-2.51471 -10.51949,-3.86625 -16.40082,-9.1942 -5.51567,-4.99661 -9.91355,-12.63037 -10.93191,-18.97538 -1.49741,-9.32917 4.62295,-15.07046 15.16874,-14.22928 7.80593,0.62262 14.26206,3.83575 21.81705,10.85794 7.33057,6.81365 11.86778,15.5023 11.97497,22.93191 0.0668,4.63617 -0.37526,5.80765 -3.0449,8.06562 -3.77097,3.18954 -9.50963,3.35732 -18.58313,0.54339 z m 15.58407,-4.46569 c 3.00666,-2.95492 2.81614,-5.05442 -1.17031,-12.89473 -7.96907,-15.67302 -27.41655,-25.84329 -35.05751,-18.33373 -3.05533,3.00267 -3.36874,6.12618 -1.10277,10.98963 l 1.52904,3.28198 0.0904,-4.15219 c 0.18216,-8.36678 8.55748,-12.11166 16.47563,-7.36683 4.19224,2.51211 9.70432,9.62201 11.41954,14.72978 1.66939,4.97125 -0.0948,9.37014 -3.75779,9.37014 -3.37199,0 -10.68921,-7.99805 -10.68921,-11.68383 0,-3.96394 2.92009,-3.02231 5.6995,1.8379 4.13173,7.2249 6.02018,5.37827 2.14133,-2.09395 -5.47325,-10.54385 -16.74595,-13.53184 -16.74595,-4.43874 0,6.05813 11.32705,18.28593 20.15302,21.75563 4.36681,1.71671 8.64531,1.32789 11.01506,-1.00106 z m -10.50121,-42.58567 c -4.48278,-4.86809 -4.14782,-16.30392 0.58783,-20.07442 2.1289,-1.69501 2.74102,-1.74976 4.78583,-0.42813 3.01719,1.95012 5.44697,9.0537 4.60893,13.47414 -0.74536,3.93144 -4.51968,9.13642 -6.62511,9.13642 -0.77901,0 -2.28993,-0.9486 -3.35748,-2.10801 z m 14.96395,-22.49481 c -3.12363,-3.69888 1.98446,-14.33528 6.45889,-13.44917 3.08623,0.61121 2.46275,10.43139 -0.82851,13.05066 -3.08155,2.45236 -3.85012,2.50676 -5.63038,0.39851 z m -121.45222,45.50632 c -18.18392,-6.9917 -36.572866,-27.66614 -37.019599,-41.62053 -0.276171,-8.62894 2.711959,-13.12731 16.027379,-24.12753 22.65468,-18.71566 29.2292,-27.36333 31.19972,-41.03797 1.33134,-9.23933 4.3558,-14.9672 11.52908,-21.83415 6.36004,-6.08855 15.03023,-10.83356 24.15783,-13.22116 7.76495,-2.03115 12.5492,-1.98927 19.96659,0.17483 4.96942,1.44991 7.43359,3.16067 13.83805,9.60738 14.67533,14.77204 21.19484,30.76483 18.46868,45.30543 -0.72774,3.88156 -2.61545,9.56375 -4.195,12.62711 -3.80888,7.38718 -14.40292,18.07193 -25.39418,25.61171 -11.27244,7.73266 -21.9422,17.774 -32.26232,30.36227 -16.39998,20.00428 -22.9654,23.28599 -36.31623,18.15261 z m 15.37979,-9.4334 c 1.32458,-0.9118 7.61717,-7.93304 13.98364,-15.60277 12.3434,-14.87024 18.45366,-20.52499 35.41651,-32.77624 17.55885,-12.68169 23.75626,-21.87287 23.79851,-35.29451 0.0217,-7.01141 -0.49825,-9.29234 -3.57671,-15.68026 -4.33634,-8.99798 -16.42144,-21.89404 -22.30578,-23.80264 -9.03586,-2.93079 -23.65742,1.51832 -33.09893,10.07146 -6.38066,5.78022 -8.92582,10.59937 -9.85001,18.65078 -1.56202,13.60662 -8.98576,23.84937 -30.75873,42.43876 -12.99001,11.09059 -15.62374,13.85633 -16.2326,17.04583 -1.04666,5.48305 3.554,14.02268 12.15205,22.55632 11.72252,11.63474 24.20125,16.70993 30.47205,12.39327 z m -20.58873,-28.489 c -1.61988,-1.11511 -2.47394,-2.83386 -2.47394,-4.97879 0,-2.72459 0.67156,-3.55153 3.99146,-4.9148 6.79618,-2.79078 14.79338,1.06783 13.41327,6.47189 -1.20102,4.70298 -10.10514,6.74353 -14.93079,3.4217 z m 26.08377,-0.29761 c -5.06284,-5.49811 1.50718,-13.52289 7.76979,-9.49013 4.93444,3.17757 2.26982,11.49076 -3.68315,11.49076 -1.23442,0 -3.07337,-0.90028 -4.08664,-2.00063 z m 14.2984,-22.73293 c -8.13421,-4.32934 -13.92697,-12.12789 -13.90343,-18.71745 0.0176,-4.85506 4.7759,-13.59232 10.42841,-19.1475 7.59505,-7.46438 18.08347,-12.22133 28.03526,-12.71522 17.33811,-0.86046 20.38601,6.77981 10.65539,26.71008 -9.13528,18.71077 -24.87022,29.37634 -35.21563,23.87009 z m 13.53833,-5.98409 c 9.45988,-4.50068 21.10859,-21.24172 22.35746,-32.13147 0.40282,-3.51224 0.0259,-4.86689 -1.81073,-6.50001 -3.30145,-2.93635 -14.70104,-1.94739 -22.87899,1.98487 -7.23899,3.48077 -17.88161,14.32621 -19.41533,19.78535 -1.19577,4.25623 0.0618,10.46551 2.52703,12.4762 1.24119,1.01232 1.60276,0.094 1.99932,-5.07805 0.58625,-7.64565 3.03606,-12.9526 8.48761,-18.38632 9.24097,-9.21079 25.83815,-12.15312 25.79207,-4.57242 -0.0226,3.68368 -8.27889,17.53152 -12.75657,21.39532 -6.90847,5.96135 -12.83614,5.6 -12.82687,-0.78193 0.009,-6.34644 10.98808,-17.2489 16.35456,-16.24068 2.52045,0.47353 4.5403,-2.11402 2.87952,-3.68879 -1.18141,-1.12018 -8.37047,1.44282 -13.61556,4.85414 -6.00832,3.90766 -10.56598,13.18189 -9.79249,19.92622 0.59368,5.17641 3.32466,9.23146 6.21712,9.23146 0.93629,0 3.85313,-1.02325 6.48185,-2.27389 z m 2.25037,-15.50347 c 4.07094,-4.22702 6.50956,-8.47843 4.86322,-8.47843 -1.60635,0 -11.19021,9.20892 -11.19021,10.75237 0,2.35054 2.86482,1.32093 6.32699,-2.27394 z"
   id="path865"
   sodipodi:nodetypes="ssssssssssssssssssssssssssssssssscsssssssssscsssscsssssssssssssssssssscssssssssssssssssssssssssscssssssssssssssssss" /><path
   style="fill:#5946bc;stroke-width:1.33333;fill-opacity:1"
   d="m 128.68216,224.11079 c 0,-8.29153 -0.1404,-8.66666 -3.2435,-8.66666 -3.4586,0 -3.9941,1.01658 -5.443,10.33333 -0.7482,4.81153 -1.3547,5.66667 -4.0187,5.66667 -4.5805,0 -4.8838,-1.5062 -1.9942,-9.90488 2.428,-7.05703 2.4486,-7.60414 0.3153,-8.36202 -1.2554,-0.44602 -2.7458,-1.06202 -3.312,-1.36889 -0.5662,-0.30688 -2.5601,2.78564 -4.4311,6.87225 -3.5836,7.82775 -4.3819,8.38391 -8.416703,5.86414 -2.3797,-1.48614 -2.2622,-1.93578 2.302203,-8.81018 4.695,-7.07125 4.7474,-7.2906 2.1924,-9.19229 -2.4234,-1.80384 -3.037203,-1.47485 -8.283803,4.44005 l -5.6664,6.38823 -2.8746,-2.87456 -2.8745,-2.87456 4.4042,-3.75532 c 2.4224,-2.06541 5.2159,-4.23512 6.2077,-4.82156 2.3327,-1.37925 2.303,-4.19256 -0.065,-6.15789 -1.4689,-1.2191 -3.2353,-0.68382 -8.261,2.50341 -3.5159,2.22973 -6.7788,4.05407 -7.2509,4.05407 -0.472,0 -1.5332,-1.48138 -2.3582,-3.29194 -1.415,-3.10565 -1.1535,-3.44516 4.6222,-6 3.3671,-1.48944 6.6103,-2.70806 7.2072,-2.70806 1.8598,0 2.3073,-1.88222 1.1653,-4.90178 l -1.0975,-2.90178 -8.0026,2.42297 c -4.4014,1.33264 -8.3371,2.08844 -8.7459,1.67956 -0.4089,-0.40888 -0.7435,-2.11623 -0.7435,-3.79411 0,-2.49344 0.9133,-3.19754 5,-3.8546 10.5903,-1.70272 11,-1.90169 11,-5.34233 0,-3.18584 -0.3231,-3.30793 -8.7552,-3.30793 h -8.7552 l 0.4219,-3.66667 c 0.3926,-3.41191 0.7924,-3.634 5.7552,-3.19655 12.0513,1.06231 12,1.07224 12,-2.32294 0,-2.59906 -1.0483,-3.49571 -5.6891,-4.86596 -10.0259,-2.96028 -9.9399,-2.89452 -8.1878,-6.26143 0.8643,-1.66088 1.7305,-3.21012 1.9249,-3.44276 0.1944,-0.23264 3.5231,1.18317 7.397,3.14624 6.6991,3.39465 7.1294,3.45179 8.7993,1.16815 0.9656,-1.3206 1.7557,-2.76143 1.7557,-3.20183 0,-0.44041 -3.3195,-2.42877 -7.3766,-4.41857 -6.6563,-3.26456 -7.2348,-3.88291 -5.924,-6.33214 1.4263,-2.66518 1.5865,-2.63769 8.8534,1.52002 5.9958,3.43046 7.6228,3.88374 8.5702,2.38769 2.274,-3.59056 1.132,-5.24733 -6.0424,-8.76597 -6.2044,-3.04291 -7.0652,-3.9076 -5.955,-5.98199 1.2216,-2.28252 1.75,-2.19661 8.9998,1.46307 7.609103,3.84106 7.722203,3.85554 9.380703,1.19996 0.9233,-1.4784 1.4871,-2.838 1.2529,-3.02132 -0.2341,-0.18334 -3.5751,-2.07491 -7.424303,-4.20351 -7.45,-4.11977 -7.5628,-4.2538 -5.8499,-6.95488 0.8763,-1.38181 2.7142,-0.96491 8.7099,1.97565 6.492203,3.18406 7.781303,3.43922 8.848603,1.75139 2.0242,-3.20131 1.6124,-3.76737 -5.2823,-7.26117 -7.533103,-3.81734 -8.385403,-4.76378 -6.704103,-7.44482 1.0188,-1.62446 2.4099,-1.29456 8.636803,2.04834 6.3264,3.39621 7.6078,3.69157 8.6773,2 2.2444,-3.5498 1.4063,-4.70824 -6.0532,-8.36674 -6.6181,-3.245769 -7.1907,-3.857659 -5.7576,-6.152339 1.5336,-2.455757 1.8549,-2.399337 8.8649,1.55689 6.9172,3.90379 7.3607,3.98604 9.0483,1.67817 2.3235,-3.17766 1.6048,-4.109357 -6.2344,-8.081797 -7.1469,-3.6216 -7.4102,-4.0672 -4.5972,-7.78176 1.809,-2.3888 2.1816,-2.28248 8.6561,2.47023 5.5364,4.06412 7.1232,4.66968 8.7339,3.33297 2.7753,-2.30332 2.4811,-3.66421 -1.6985,-7.85702 -7.3843,-7.40772 -7.6666,-7.99484 -4.8645,-10.11587 3.5564,-2.69192 3.5965,-2.67277 8.388,3.99927 4.4095,6.14016 6.4604,7.14948 9.1209,4.48892 1.1259,-1.1259 0.4629,-3.3684 -2.6009,-8.79715 -3.3626,-5.95816 -3.7716,-7.50156 -2.2444,-8.46849 4.1452,-2.62448 6.1006,-1.22491 8.6122,6.1642 2.0471,6.02252 3.011,7.31588 5.2166,7 2.9774,-0.42643 3.4279,-4.22382 1.5884,-13.38748 -0.9843,-4.90294 -0.925,-5 3.0566,-5 3.9124,0 4.0605,0.21485 4.0605,5.89094 0,7.94354 1.0302,10.10906 4.8093,10.10906 2.9328,0 3.1907,-0.5299 3.1907,-6.55762 0,-8.88413 0.7888,-10.51001 4.7334,-9.75594 3.6269,0.6933 3.8655,2.09905 1.8445,10.86684 -1.047,4.54238 -0.9635,6.1362 0.3659,6.97958 3.4366,2.18023 4.7838,0.99276 7.69,-6.77849 2.8269,-7.559 3.1021,-7.84711 6.1626,-6.45264 3.977,1.81205 3.9568,3.00691 -0.1646,9.69827 -1.8066,2.93333 -3.2879,6.08333 -3.2917,7 -0.014,3.5117 2.8459,1.4044 6.7866,-5 4.4975,-7.3094 4.8672,-7.51714 8.5655,-4.81286 2.4317,1.77815 2.3333,2.10027 -2.4118,7.89107 -5.5309,6.74967 -5.8399,7.85428 -2.884,10.30752 1.7493,1.45179 2.9605,0.83156 7.9624,-4.07744 5.7842,-5.67673 5.952,-5.74193 8.6035,-3.34233 1.4874,1.34604 2.7033,2.80434 2.7019,3.24069 0,0.43633 -2.699,2.49703 -5.995,4.57931 -7.2955,4.60902 -7.8512,5.4265 -6.0179,8.852117 1.4292,2.67044 1.4969,2.66504 8.0174,-0.63911 8.1137,-4.111527 8.5472,-4.113747 10.3974,-0.0531 1.4523,3.187597 1.27,3.342157 -6.5224,5.528597 -7.3821,2.071302 -7.9846,2.524062 -7.6135,5.720722 0.3637,3.13183 0.8596,3.41548 5.0698,2.89978 10.354,-1.26828 12.646,-0.90624 13.0699,2.06449 0.4665,3.26886 -2.5607,4.46051 -11.4033,4.48892 -5.0887,0.0164 -5.6666,0.34482 -5.6666,3.22062 0,2.92201 0.7005,3.28372 8,4.13092 7.7265,0.89676 8,1.06076 8,4.79758 0,4.48051 0.2361,4.43248 -9.3065,1.89308 -4.1037,-1.09202 -7.8115,-1.43941 -8.4584,-0.79246 -2.5542,2.55416 0.05,5.86261 6.7636,8.59081 3.8493,1.56437 6.9993,3.17964 7,3.58948 7e-4,0.40984 -0.7888,1.82565 -1.7545,3.14625 -1.6709,2.28518 -2.0871,2.23312 -8.6223,-1.07849 -8.2252,-4.16803 -7.8437,-4.13552 -9.6183,-0.81967 -1.2733,2.37915 -0.6449,3.0418 5.9531,6.27776 4.0571,1.9898 7.3766,4.41168 7.3766,5.38192 0,3.37698 -3.8619,3.2071 -10.0919,-0.44393 -5.9801,-3.50457 -6.3523,-3.56217 -8.0464,-1.24535 -2.3267,3.18188 -1.6087,4.11066 6.2601,8.09807 5.7056,2.89128 6.4177,3.68456 5.2558,5.85553 -1.2808,2.39318 -1.6961,2.32044 -8.8385,-1.54806 -6.0908,-3.29894 -7.7135,-3.71367 -8.6631,-2.21422 -2.1287,3.36119 -1.2746,4.56995 6.0164,8.5139 6.1629,3.33376 7.0339,4.26696 5.922,6.34452 -1.2247,2.28841 -1.762,2.18754 -8.8778,-1.66651 -7.0364,-3.81113 -7.6935,-3.93913 -9.2554,-1.80311 -0.9246,1.26459 -1.6812,2.65958 -1.6812,3.09998 0,0.44041 3.3,2.41921 7.3333,4.39734 7.5764,3.7158 8.0985,4.35294 6.1231,7.47216 -0.9475,1.49606 -2.5744,1.04278 -8.5703,-2.38769 -7.3033,-4.17853 -7.4201,-4.19811 -8.8718,-1.48571 -1.9337,3.61318 -1.4094,4.25087 6.5649,7.98583 7.113,3.33157 7.3851,3.64781 5.5837,6.48969 -0.9044,1.42683 -2.4861,1.09463 -7.9352,-1.66666 -8.1376,-4.12362 -9.0644,-4.20134 -10.827,-0.90791 -1.1688,2.18391 -0.4263,3.13984 5.2864,6.80565 6.935,4.45018 7.9878,6.54699 4.6697,9.30075 -1.6283,1.35136 -3.1234,0.68025 -8.4852,-3.80895 -6.1416,-5.142 -6.628,-5.31737 -8.626,-3.10964 -1.9575,2.16306 -1.7269,2.83471 3.0547,8.89623 4.7024,5.961 4.969,6.71095 2.9359,8.25677 -3.525,2.68012 -4.8772,2.13412 -7.9621,-3.21494 -5.1175,-8.87331 -4.9871,-8.75916 -8.1031,-7.0915 -2.7294,1.46074 -2.7562,1.7014 -0.7202,6.47099 4.7448,11.11529 4.7228,10.63245 0.5506,12.08691 -3.8377,1.33782 -3.859,1.31521 -5.4485,-5.78727 -2.0464,-9.14429 -2.6879,-10.07619 -6.2879,-9.13476 -2.8052,0.73359 -2.9238,1.25732 -2.1015,9.2832 l 0.8714,8.50576 h -3.5175 c -3.4402,4e-5 -3.5174,-0.19009 -3.5174,-8.66663 z m -5.6031,-32.85881 c 4.3932,-2.12669 6.5422,-4.26079 8.3917,-8.33333 3.1332,-6.8994 3.1171,-9.4178 -0.1061,-16.51955 -1.9791,-4.36039 -3.9437,-6.32501 -8.3041,-8.30405 -7.3024,-3.31435 -9.557,-3.28642 -16.7753,0.20789 -4.3931,2.12669 -6.542203,4.26079 -8.391703,8.33333 -3.2032,7.05363 -3.1594,9.36278 0.3141,16.53811 2.126703,4.39316 4.260803,6.5422 8.333403,8.39168 7.0536,3.20329 9.3627,3.15944 16.5381,-0.31408 z m -15.1127,-8.17857 c -5.2942,-4.55387 -5.3588,-11.98248 -0.1432,-16.46874 4.6111,-3.96633 9.0675,-4.0195 13.4527,-0.16054 4.9971,4.39734 5.7488,10.36389 1.8628,14.78389 -4.5864,5.21663 -10.4271,5.92703 -15.1723,1.84539 z m 54.7764,-10.90202 c 4.5682,-4.56816 4.5227,-12.42148 -0.097,-16.76152 -7.397,-6.94916 -19.3555,-1.70609 -19.2545,8.44194 0.101,10.14308 12.2885,15.38269 19.3516,8.31958 z m -10.459,-5.57006 c -1.5759,-1.57599 -1.0386,-5.49878 0.8526,-6.22452 2.6875,-1.0313 5.204,1.06238 4.6617,3.87844 -0.4946,2.5682 -3.8602,4.00012 -5.5143,2.34608 z m -6.9518,-61.01656 c 5.63,-7.381309 11.9363,-8.761269 24.899,-5.44844 2.8912,0.73889 3.9698,0.26462 5.82,-2.559299 2.0477,-3.12513 2.0725,-3.76954 0.2517,-6.548417 -3.5639,-5.4392 -15.2943,-7.6185 -25.6205,-4.75982 -6.7655,1.87295 -18,12.723497 -18,17.384856 0,7.61064 7.4503,8.748 12.6498,1.93112 z"
   id="path865-8"
   sodipodi:nodetypes="csssssscssssccccsssscssscsssssscsssssssssssscsssssssscssssssssssssssssssssssssssssssccsssssscssscscsssssssccscsssssssssssssssssscsssssssssscsssssscscccsssscssccssssscsscccsscsscssss" /><path
   style="fill:#832b2b;stroke-width:1.48456;fill-opacity:1"
   d="m 333.65461,302.92362 c -30.81224,-4.27549 -46.27195,-15.15432 -46.27195,-32.56103 0,-20.02674 11.38065,-29.50264 39.35835,-32.77119 16.20119,-1.89272 27.0067,-5.82241 36.46463,-13.2612 6.64044,-5.2228 8.12295,-8.70477 10.38411,-24.38786 3.89801,-27.03625 14.34389,-40.27689 31.7476,-40.24147 14.7761,0.03 31.68173,11.20404 40.00373,26.44096 3.66167,6.70442 4.42092,10.116 4.89642,22.00317 1.76508,44.12638 -28.77953,82.09849 -74.49799,92.61347 -12.26365,2.82057 -30.57308,3.76254 -42.0849,2.16515 z m 16.93257,-24.90877 c 2.30281,-2.15315 4.63503,-5.92155 5.18253,-8.37423 0.83877,-3.75687 0.21551,-5.15823 -3.95625,-8.89533 -4.16658,-3.73236 -5.75061,-4.29899 -9.98684,-3.5725 -11.33006,1.94298 -17.7984,15.43105 -10.52481,21.94671 4.81655,4.31467 14.05531,3.78549 19.28537,-1.10465 z m -13.01126,-7.27645 c 0,-3.32235 5.87002,-6.59381 8.15636,-4.5457 2.28646,2.04811 -1.36557,7.30644 -5.07442,7.30644 -2.01788,0 -3.08194,-0.95319 -3.08194,-2.76074 z m 41.56622,-9.18249 c 0,-3.50832 -0.6289,-4.21526 -3.75037,-4.21526 -5.02089,0 -7.77285,3.8993 -4.9229,6.97546 1.16864,1.26127 3.59815,2.10463 5.39899,1.87414 2.48844,-0.3185 3.27428,-1.43074 3.27428,-4.63434 z m 35.43939,-39.41064 c 5.97319,-2.76699 10.81915,-9.84015 10.82668,-15.80286 0.0177,-13.93838 -23.03822,-16.1632 -30.66084,-2.95871 -3.67285,6.36234 -2.87278,12.18546 2.31234,16.83024 5.18029,4.64052 10.4254,5.21864 17.52182,1.93133 z m -11.6498,-7.1914 c -2.37857,-2.13066 -0.77855,-7.47809 3.04324,-10.17105 7.70897,-5.43194 13.89791,2.02063 6.89078,8.29761 -3.10312,2.77974 -7.91026,3.68633 -9.93402,1.87344 z M 297.6949,226.31786 c -17.05032,-5.59483 -30.40756,-17.59872 -34.86425,-31.33182 -3.69379,-11.38195 -2.19141,-35.34919 3.07277,-49.02128 12.71974,-33.03588 46.64393,-53.645739 92.36026,-56.111456 38.97214,-2.101975 68.71891,13.231806 68.71891,35.423016 0,8.06945 -2.70373,12.82951 -10.45717,18.41028 -9.01737,6.49058 -17.83616,10.10116 -28.3912,11.62386 -18.89187,2.72539 -33.59174,12.82684 -38.69498,26.59041 -1.45615,3.92718 -3.20358,12.08105 -3.88319,18.11971 -1.72049,15.28811 -7.05065,23.33968 -17.88556,27.01712 -6.16083,2.09102 -22.61354,1.69593 -29.97559,-0.71984 z m 16.43989,-35.76046 c 7.53368,-3.61178 9.93708,-15.70509 4.66149,-23.45584 -7.71956,-11.34138 -25.11562,-4.99778 -25.1335,9.16512 -0.0141,11.63587 10.58116,19.03249 20.47201,14.29072 z m 51.8221,-42.88171 c 9.86509,-4.56984 13.7811,-16.56868 7.67627,-23.52088 -9.22206,-10.50227 -29.75901,-1.66891 -29.77724,12.80776 0,3.29772 1.34463,5.88438 4.57915,8.78179 5.18029,4.64052 10.42529,5.21865 17.52182,1.93133 z m -11.64992,-7.1914 c -2.24776,-2.01357 -0.86395,-7.15691 2.74219,-10.19167 7.70604,-6.48503 14.69434,1.59764 7.19195,8.31822 -3.10312,2.77974 -7.91038,3.68633 -9.93414,1.87345 z m -41.82762,5.15199 c 1.72531,-1.5456 3.137,-4.19208 3.137,-5.88106 0,-3.71272 -5.79979,-9.5749 -9.47311,-9.5749 -4.39057,0 -10.91785,5.52115 -10.91785,9.23505 0,4.41973 5.20594,9.03108 10.19554,9.03108 2.1567,0 5.33299,-1.26457 7.05842,-2.81017 z"
   id="path865-2"
   sodipodi:nodetypes="ssssssssssscssssssssssssssssssssssssssssssssssscssscssssssssssss" /></svg>
