<?xml version="1.0" encoding="UTF-8" standalone="no"?>
<svg
   xmlns:dc="http://purl.org/dc/elements/1.1/"
   xmlns:cc="http://creativecommons.org/ns#"
   xmlns:rdf="http://www.w3.org/1999/02/22-rdf-syntax-ns#"
   xmlns:svg="http://www.w3.org/2000/svg"
   xmlns="http://www.w3.org/2000/svg"
   xmlns:sodipodi="http://sodipodi.sourceforge.net/DTD/sodipodi-0.dtd"
   xmlns:inkscape="http://www.inkscape.org/namespaces/inkscape"
   version="1.1"
   id="Capa_1"
   x="0px"
   y="0px"
   viewBox="0 0 470 470"
   style="enable-background:new 0 0 470 470;"
   xml:space="preserve"
   sodipodi:docname="tree.svg"
   inkscape:version="1.0.2-2 (e86c870879, 2021-01-15)"><metadata
   id="metadata49"><rdf:RDF><cc:Work
       rdf:about=""><dc:format>image/svg+xml</dc:format><dc:type
         rdf:resource="http://purl.org/dc/dcmitype/StillImage" /></cc:Work></rdf:RDF></metadata><defs
   id="defs47" /><sodipodi:namedview
   pagecolor="#ffffff"
   bordercolor="#666666"
   borderopacity="1"
   objecttolerance="10"
   gridtolerance="10"
   guidetolerance="10"
   inkscape:pageopacity="0"
   inkscape:pageshadow="2"
   inkscape:window-width="2787"
   inkscape:window-height="1586"
   id="namedview45"
   showgrid="false"
   inkscape:zoom="7.3191489"
   inkscape:cx="238.54638"
   inkscape:cy="368.03147"
   inkscape:window-x="-11"
   inkscape:window-y="-11"
   inkscape:window-maximized="1"
   inkscape:current-layer="Capa_1" />
<g
   id="g12">
	<path
   d="M350.851,146.286c2.093-8.917,3.153-18.077,3.153-27.282C354.003,53.385,300.619,0,235,0S115.997,53.385,115.997,119.004   c0,9.206,1.06,18.365,3.153,27.282c-21.612,26.559-33.469,59.853-33.469,94.203c0,34.339,11.945,67.867,33.634,94.409   c21.383,26.167,51.252,44.475,84.106,51.552c4.048,0.873,8.039-1.703,8.911-5.753c0.872-4.049-1.704-8.039-5.753-8.911   c-61.362-13.217-105.898-68.435-105.898-131.298c0-32.077,11.495-63.132,32.366-87.443c1.617-1.884,2.198-4.445,1.55-6.842   c-2.389-8.84-3.6-17.992-3.6-27.2C130.997,61.656,177.652,15,235,15s104.003,46.656,104.003,104.004c0,9.208-1.211,18.36-3.6,27.2   c-0.648,2.397-0.067,4.958,1.55,6.842c20.872,24.311,32.366,55.366,32.366,87.443c0,62.862-44.537,118.081-105.898,131.298   c-4.049,0.872-6.625,4.862-5.753,8.911c0.758,3.517,3.867,5.922,7.325,5.922c0.523,0,1.054-0.055,1.586-0.17   c32.854-7.076,62.723-25.385,84.106-51.552c21.689-26.542,33.634-60.071,33.634-94.409   C384.319,206.139,372.462,172.845,350.851,146.286z"
   id="path2" />
	<path
   d="M297.007,266.39c2.929-2.929,2.929-7.678,0-10.606c-2.929-2.929-7.678-2.929-10.606,0L242.5,299.684v-43.867   c0-0.026,0-126.517,0-126.517c0-4.142-3.358-7.5-7.5-7.5s-7.5,3.358-7.5,7.5v108.397l-43.9-43.9c-2.929-2.929-7.678-2.929-10.606,0   c-2.929,2.929-2.929,7.677,0,10.606l54.507,54.507V462.5c0,4.142,3.358,7.5,7.5,7.5s7.5-3.358,7.5-7.5V320.897L297.007,266.39z"
   id="path4" />
	<path
   d="M162.5,290.5c0,4.411,3.589,8,8,8s8-3.589,8-8s-3.589-8-8-8S162.5,286.089,162.5,290.5z"
   id="path6" />
	<path
   d="M299.704,104c0-4.411-3.589-8-8-8s-8,3.589-8,8s3.589,8,8,8S299.704,108.411,299.704,104z"
   id="path8" />
	<path
   d="M281,74.5c0-4.411-3.589-8-8-8s-8,3.589-8,8s3.589,8,8,8S281,78.911,281,74.5z"
   id="path10" />
</g>
<g
   id="g14">
</g>
<g
   id="g16">
</g>
<g
   id="g18">
</g>
<g
   id="g20">
</g>
<g
   id="g22">
</g>
<g
   id="g24">
</g>
<g
   id="g26">
</g>
<g
   id="g28">
</g>
<g
   id="g30">
</g>
<g
   id="g32">
</g>
<g
   id="g34">
</g>
<g
   id="g36">
</g>
<g
   id="g38">
</g>
<g
   id="g40">
</g>
<g
   id="g42">
</g>
<path
   style="fill:#6ee992;fill-opacity:0.453608;fill-rule:evenodd;stroke:#b4c3b5;stroke-width:0.407698;stroke-linecap:round;stroke-opacity:1"
   d="m 218.47397,377.34322 c -12.55625,0.0709 -0.78564,-3.3875 -15.50247,-6.75366 -14.30889,-3.62712 -29.81278,-10.45257 -41.47731,-18.26002 -20.3225,-13.6025 -36.11394,-31.64498 -46.72685,-53.38768 -6.22833,-12.76 -10.19845,-25.20184 -12.29439,-38.52907 -1.38518,-8.80775 -1.68042,-25.46885 -0.6137,-34.63199 3.01277,-25.8797 12.58298,-48.86 28.87987,-69.34727 2.74205,-3.44712 3.88433,-5.35965 4.08011,-6.8314 0.15432,-1.16008 -0.33153,-4.89731 -1.12353,-8.64218 -3.94856,-18.67046 -2.96144,-36.73392 2.98342,-54.594078 7.10137,-21.334625 20.72357,-39.408623 39.84414,-52.865359 11.87085,-8.354508 28.3773,-14.837419 43.60903,-17.127456 7.70871,-1.158977 22.02671,-1.158977 29.73542,0 16.21544,2.437934 32.4393,9.052064 45.94691,18.731592 5.47861,3.925965 15.19288,13.162335 19.63114,18.665371 16.7096,20.718395 25.16769,47.68053 22.92041,73.06419 -0.36654,4.14015 -1.29438,10.49673 -2.06187,14.12574 -0.792,3.74487 -1.27786,7.4821 -1.12353,8.64218 0.19578,1.47175 1.33805,3.38428 4.08011,6.8314 20.38978,25.63256 30.36506,55.28335 29.46544,87.58391 -0.57254,20.55707 -4.4781,36.4542 -13.49366,54.92442 -6.59726,13.51582 -13.66948,23.58306 -24.31031,34.60546 -17.63913,18.27164 -39.23427,30.79136 -63.89385,37.04224 -5.90043,1.49568 -7.06895,2.09654 -8.60354,4.42395 0.48781,-0.14687 1.25199,2.25088 -1.97414,1.01318 -2.63022,0.45276 -6.81112,1.01842 -9.29094,1.25703 l -4.50872,0.43384 v -22.17242 -34.17241 l 28.1045,-28.1573 c 24.43906,-24.48497 28.15235,-28.41901 28.47141,-30.16399 1.07879,-5.90003 -3.53987,-10.57354 -9.38656,-9.49803 -1.8588,0.34192 -4.71173,2.98959 -24.64574,22.87254 l -22.54361,22.48585 v -85.79583 c 0,-82.04864 -0.0436,-85.87714 -0.99862,-87.65785 -2.70467,-5.04315 -10.60041,-5.04315 -13.30508,0 -0.94818,1.76798 -0.99862,4.63662 -0.99862,56.79248 v 54.93045 L 205.07849,214.97036 C 192.8298,202.75448 182.27096,192.48802 181.61442,192.156 c -0.65655,-0.33202 -2.22607,-0.60367 -3.48782,-0.60367 -5.56866,0 -9.08296,5.40673 -6.84949,10.5379 0.43485,0.99902 12.70962,13.67842 28.4186,29.35542 l 27.65313,27.5968 v 65.4468 53.4468 l -2.32268,-0.0727 c -1.27747,-0.04 -4.22595,-0.27404 -6.55219,-0.52013 z m -44.17561,-79.63186 c 2.61192,-1.33185 3.97826,-3.42971 4.24426,-6.51658 0.41554,-4.82212 -2.52276,-8.34256 -7.30714,-8.75484 -4.82212,-0.41554 -8.34256,2.52275 -8.75485,7.30714 -0.56994,6.61394 5.90642,10.97853 11.81773,7.96428 z M 295.4574,111.18227 c 4.20089,-2.03362 5.79736,-7.84687 3.23072,-11.764066 -1.65548,-2.526578 -4.04298,-3.588079 -7.56182,-3.362041 -2.7864,0.178993 -3.41052,0.443942 -5.15498,2.188412 -1.73664,1.73664 -2.0125,2.381085 -2.20664,5.154975 -0.18562,2.65208 -0.0112,3.48284 1.06703,5.08301 1.46998,2.1815 4.34476,3.82349 6.69633,3.82473 0.88198,4.7e-4 2.6502,-0.50579 3.92936,-1.12502 z M 276.16807,82.051053 c 2.4199,-1.011095 4.5613,-3.690543 4.99338,-6.248038 0.46705,-2.764463 -0.93784,-6.303164 -3.11901,-7.856298 -2.24445,-1.598182 -6.2669,-1.931749 -8.79993,-0.729746 -4.38626,2.081414 -5.82428,8.628153 -2.70856,12.330977 2.55672,3.038495 6.13049,3.967019 9.63412,2.503105 z"
   id="path876"
   sodipodi:nodetypes="ccsssssscssssssssssssssccscccsssscsssscssssscccscsssssssssssssssssss" /></svg>
